<svg width="24" height="24" viewBox="0 0 24 24" fill="none" xmlns="http://www.w3.org/2000/svg">
<path d="M21.7417 17.436L19.8593 14.064C19.8593 14.064 19.8358 14.004 19.8358 13.98V8.088C19.8358 3.624 16.3182 0 12.0005 0C7.68286 0 4.16522 3.624 4.16522 8.088L4.14169 14.076L2.25934 17.436C1.9064 18.06 1.91816 18.792 2.25934 19.416C2.61228 20.028 3.22404 20.388 3.91816 20.388H7.81228C8.17698 22.428 9.90639 23.988 12.0005 23.988C14.0946 23.988 15.824 22.428 16.1887 20.388H20.0829C20.777 20.388 21.3887 20.028 21.7417 19.416C22.0946 18.792 22.0946 18.06 21.7417 17.436ZM12.0005 22.2C10.8946 22.2 9.96522 21.444 9.63581 20.4H14.3652C14.0358 21.444 13.1064 22.2 12.0005 22.2ZM20.2123 18.516C20.2123 18.516 20.1417 18.6 20.0829 18.6H3.92992C3.92992 18.6 3.82404 18.576 3.80051 18.516C3.77698 18.468 3.75345 18.408 3.80051 18.324L5.68287 14.952C5.84757 14.652 3 19.348 3 19L9 18.6C9 15.132 8.66522 18.6 12.0064 18.6C15.3476 18.6 15 15.132 15 18.6H21C21 18.948 18.177 14.652 18.3417 14.952L20.224 18.324C20.2711 18.396 20.2476 18.468 20.224 18.516H20.2123Z" fill="white"/>
</svg>
