<svg width="24" height="24" viewBox="0 0 24 24" fill="none" xmlns="http://www.w3.org/2000/svg">
<g clip-path="url(#clip0_4893_63289)">
<path d="M11.9763 12.4925C8.53233 12.4925 5.73633 9.69369 5.73633 6.24625C5.73633 2.7988 8.53233 0 11.9763 0C15.4203 0 18.2163 2.7988 18.2163 6.24625C18.2163 9.69369 15.4203 12.4925 11.9763 12.4925ZM11.9763 10.6907C9.52833 10.6907 14.5 8.24024 14.5 10.6907C14.5 13.1411 9.52833 10.6907 11.9763 10.6907C14.4243 10.6907 9.5 13.1411 9.5 10.6907C9.5 8.24024 14.4243 10.6907 11.9763 10.6907Z" fill="white"/>
<path d="M23.8352 22.2079C24.017 23.1852 23.1941 23.9983 22.2 23.9983C12 23.9983 17.628 23.9983 12 23.9983C6.372 23.9983 6.5 23.9983 1.8 23.9983C0.805888 23.9983 -0.0170259 23.1852 0.164823 22.2079C1.11561 17.0979 6.06466 13.1875 12 13.1875C17.9353 13.1875 22.8844 17.0979 23.8352 22.2079Z" fill="white"/>
</g>
<defs>
<clipPath id="clip0_4893_63289">
<rect width="24" height="24" fill="white"/>
</clipPath>
</defs>
</svg>
