<svg width="22" height="22" viewBox="0 0 22 22" fill="none" xmlns="http://www.w3.org/2000/svg">
<path d="M10.7364 6.73588C8.27326 9.31477 7.39923 12.6453 7.46646 13.5375C7.50314 14.0142 7.87597 14.387 8.35883 14.4237C9.25119 14.4909 12.6067 13.617 15.2166 11.1787C17.5759 8.97255 19.4584 7.09644 19.9168 6.55866C19.9901 6.4731 20.0513 6.39366 20.1001 6.32644C20.1124 6.31421 20.1185 6.29588 20.1307 6.27755C20.253 6.11255 20.363 5.91699 20.4608 5.71532C20.5158 5.5931 20.583 5.42199 20.638 5.23255C20.8642 4.48088 20.962 3.27699 19.8557 2.17088L19.8434 2.15866C18.7127 1.04032 17.4842 1.14421 16.7263 1.37644C16.5429 1.43144 16.3779 1.49255 16.2618 1.54755C16.0539 1.63921 15.8584 1.75532 15.6933 1.87144C15.6811 1.88366 15.6628 1.88977 15.6444 1.90199C15.5772 1.95088 15.4977 2.01199 15.4122 2.08532C14.9171 2.49477 13.1201 4.26699 10.7487 6.74199L10.7364 6.73588ZM14.587 10.5064C12.0566 12.8714 8.90892 13.5375 8.38328 13.4642C8.3466 12.9814 9.01893 9.85866 11.4026 7.36532C13.3707 5.30588 15.0271 3.65588 15.7361 3.00199C15.8828 3.77199 16.2556 4.51144 16.8485 5.11032C17.4414 5.70921 18.1932 6.08199 18.9694 6.22866C18.3338 6.90699 16.763 8.47144 14.587 10.5064ZM16.6285 2.37255C17.1725 2.1281 18.2299 1.8531 19.1894 2.80644L19.2017 2.81866C20.1429 3.75977 19.874 4.79866 19.6234 5.33032C19.6173 5.34866 19.6051 5.36088 19.599 5.3731C18.8349 5.34255 18.077 5.04921 17.4964 4.46866C16.9158 3.8881 16.6285 3.14866 16.5918 2.39699C16.604 2.39088 16.6163 2.38477 16.6285 2.37866V2.37255Z" fill="white"/>
<path d="M12.1672 20.7743H9.8385C5.08941 20.7743 1.22657 16.9121 1.22657 12.1638V9.83542C1.22046 5.08097 5.0833 1.21875 9.83239 1.21875H10.9998C11.2504 1.21875 11.4582 1.42653 11.4582 1.67708C11.4582 1.92764 11.2504 2.13542 10.9998 2.13542H9.83239C5.5906 2.13542 2.13727 5.58819 2.13727 9.82931V12.1576C2.13727 16.3988 5.5906 19.8515 9.83239 19.8515H12.1611C16.4029 19.8515 19.8562 16.3988 19.8562 12.1576V10.9904C19.8562 10.7399 20.064 10.5321 20.3146 10.5321C20.5652 10.5321 20.773 10.7399 20.773 10.9904V12.1576C20.773 16.906 16.9102 20.7682 12.1611 20.7682L12.1672 20.7743Z" fill="white"/>
</svg>
